<svg width="25" height="25" viewBox="0 0 25 25" fill="none" xmlns="http://www.w3.org/2000/svg">
<path d="M1.78571 0.5H8.92857C9.63865 0.5 10.2143 1.07563 10.2143 1.78571V8.92857C10.2143 9.63865 9.63865 10.2143 8.92857 10.2143H1.78571C1.07563 10.2143 0.5 9.63865 0.5 8.92857V1.78571C0.5 1.07563 1.07563 0.5 1.78571 0.5Z" fill="#707175" fill-opacity="0.5" stroke="#707175"/>
<path d="M16.0714 0.5H23.2143C23.9244 0.5 24.5 1.07563 24.5 1.78571V8.92857C24.5 9.63865 23.9244 10.2143 23.2143 10.2143H16.0714C15.3614 10.2143 14.7857 9.63865 14.7857 8.92857V1.78571C14.7857 1.07563 15.3614 0.5 16.0714 0.5Z" stroke="#707175"/>
<path d="M1.78571 14.7857H8.92857C9.63865 14.7857 10.2143 15.3613 10.2143 16.0714V23.2143C10.2143 23.9244 9.63865 24.5 8.92857 24.5H1.78571C1.07563 24.5 0.5 23.9244 0.5 23.2143V16.0714C0.5 15.3613 1.07563 14.7857 1.78571 14.7857Z" stroke="#707175"/>
<path d="M16.0714 14.7857H23.2143C23.9244 14.7857 24.5 15.3613 24.5 16.0714V23.2143C24.5 23.9244 23.9244 24.5 23.2143 24.5H16.0714C15.3614 24.5 14.7857 23.9244 14.7857 23.2143V16.0714C14.7857 15.3613 15.3614 14.7857 16.0714 14.7857Z" fill="#707175" fill-opacity="0.5" stroke="#707175"/>
</svg>
