<svg width="25" height="25" viewBox="0 0 25 25" fill="#ffffff" xmlns="http://www.w3.org/2000/svg">
<path d="M12.5 7.69231C9.82143 7.69231 7.69231 9.82143 7.69231 12.5C7.69231 15.1786 9.82143 17.3077 12.5 17.3077C15.1786 17.3077 17.3077 15.1786 17.3077 12.5C17.3077 9.82143 15.1786 7.69231 12.5 7.69231ZM12.5 15.9341C10.5769 15.9341 9.06593 14.4231 9.06593 12.5C9.06593 10.5769 10.5769 9.06593 12.5 9.06593C14.4231 9.06593 15.9341 10.5769 15.9341 12.5C15.9341 14.4231 14.4231 15.9341 12.5 15.9341Z" fill="#ffffff"/>
<path d="M23.511 9.9142L21.4076 9.23811L20.9569 8.11131L22.0085 6.15819C22.2339 5.70747 22.1588 5.1065 21.7832 4.7309L19.9803 2.92802C19.6047 2.55242 19.0037 2.4773 18.553 2.70266L16.5999 3.75434L15.4731 3.30362L14.797 1.20025C14.6468 0.749533 14.196 0.373932 13.6702 0.373932H11.1161C10.5903 0.373932 10.1396 0.749533 10.0644 1.27537L9.38836 3.37874C8.93763 3.45386 8.56203 3.6041 8.18643 3.82946L6.23331 2.77778C5.78259 2.55242 5.18162 2.62754 4.80602 3.00314L3.00314 4.80602C2.62754 5.18162 2.55242 5.78259 2.77778 6.23331L3.75434 8.11131C3.6041 8.48691 3.45386 8.93763 3.30362 9.31323L1.20025 9.98932C0.749533 10.1396 0.373932 10.5903 0.373932 11.1161V13.6702C0.373932 14.196 0.749533 14.6468 1.27537 14.797L3.37874 15.4731L3.82946 16.5999L2.77778 18.553C2.55242 19.0037 2.62754 19.6047 3.00314 19.9803L4.80602 21.7832C5.18162 22.1588 5.78259 22.2339 6.23331 22.0085L8.18643 20.9569L9.31323 21.4076L9.98932 23.5861C10.1396 24.0368 10.5903 24.4124 11.1161 24.4124H13.6702C14.196 24.4124 14.6468 24.0368 14.797 23.5861L15.4731 21.4076L16.5999 20.9569L18.553 22.0085C19.0037 22.2339 19.6047 22.1588 19.9803 21.7832L21.7832 19.9803C22.1588 19.6047 22.2339 19.0037 22.0085 18.553L20.9569 16.5999L21.4076 15.4731L23.5861 14.797C24.0368 14.6468 24.4124 14.196 24.4124 13.6702V11.1161C24.4124 10.5903 24.0368 10.0644 23.511 9.9142ZM22.91 13.4448L20.2057 14.2712L20.1305 14.6468L19.4545 16.2243L19.2291 16.5999L20.5813 19.0789L19.0789 20.5813L16.5999 19.2291L16.2243 19.4545C15.6985 19.7549 15.1726 19.9803 14.6468 20.1305L14.2712 20.2057L13.4448 22.91H11.3415L10.5152 20.2057L10.1396 20.1305L8.56203 19.4545L8.18643 19.2291L5.70747 20.5813L4.20506 19.0789L5.55722 16.5999L5.33186 16.2243C5.03138 15.6985 4.80602 15.1726 4.65578 14.6468L4.58066 14.2712L1.87634 13.4448V11.3415L4.43042 10.5903L4.58066 10.2147C4.7309 9.61372 4.95626 9.08787 5.25674 8.56203L5.48211 8.18643L4.20506 5.70747L5.70747 4.20506L8.11131 5.55722L8.48691 5.33186C9.01275 5.03138 9.5386 4.80602 10.1396 4.65578L10.5152 4.50554L11.3415 1.87634H13.4448L14.2712 4.50554L14.6468 4.65578C15.1726 4.80602 15.6985 5.03138 16.2243 5.33186L16.5999 5.55722L19.0789 4.20506L20.5813 5.70747L19.2291 8.18643L19.4545 8.56203C19.7549 9.08787 19.9803 9.61372 20.1305 10.1396L20.2057 10.5152L22.91 11.3415V13.4448Z" fill="#ffffff"/>
</svg>
